HIERARCHY
ROOT Hips
{
	OFFSET 0.0000 0.0000 0.0000
	CHANNELS 6 Xposition Yposition Zposition Zrotation Xrotation Yrotation
	JOINT Spine1
	{
		OFFSET -0.0137 5.0038 -0.0537
		CHANNELS 3 Zrotation Xrotation Yrotation
		JOINT Spine2
		{
			OFFSET -0.0000 7.1253 -0.0298
			CHANNELS 3 Zrotation Xrotation Yrotation
			JOINT Chest
			{
				OFFSET -0.0000 7.5501 -0.8160
				CHANNELS 3 Zrotation Xrotation Yrotation
				JOINT Neck1
				{
					OFFSET -0.1817 26.3113 -0.5533
					CHANNELS 3 Zrotation Xrotation Yrotation
					JOINT Neck2
					{
						OFFSET -0.0000 7.7094 2.3026
						CHANNELS 3 Zrotation Xrotation Yrotation
						JOINT Head
						{
							OFFSET -0.0000 6.1289 1.9537
							CHANNELS 3 Zrotation Xrotation Yrotation
							JOINT Jaw
							{
								OFFSET 0.0026 0.4756 3.0949
								CHANNELS 3 Zrotation Xrotation Yrotation
								End Site
								{
									OFFSET 0.0 1.0 0.0
								}
							}
							JOINT LeftEye
							{
								OFFSET 3.2064 5.3802 7.5869
								CHANNELS 3 Zrotation Xrotation Yrotation
								End Site
								{
									OFFSET 0.0 1.0 0.0
								}
							}
							JOINT RightEye
							{
								OFFSET -3.2224 5.3619 7.5582
								CHANNELS 3 Zrotation Xrotation Yrotation
								End Site
								{
									OFFSET 0.0 1.0 0.0
								}
							}
						}
					}
				}
				JOINT LeftShoulder
				{
					OFFSET 1.6217 23.2372 5.1134
					CHANNELS 3 Zrotation Xrotation Yrotation
					JOINT LeftArm
					{
						OFFSET 14.9198 0.0000 -5.5023
						CHANNELS 3 Zrotation Xrotation Yrotation
						JOINT LeftForeArm
						{
							OFFSET 28.7393 0.0000 -0.0026
							CHANNELS 3 Zrotation Xrotation Yrotation
							JOINT LeftHand
							{
								OFFSET 27.0940 -0.0000 0.0026
								CHANNELS 3 Zrotation Xrotation Yrotation
								JOINT LeftHandThumbEnd
								{
									OFFSET 12.2686 -3.2202 4.8331
									CHANNELS 3 Zrotation Xrotation Yrotation
									End Site
									{
										OFFSET 0.0 1.0 0.0
									}
								}
								JOINT LeftHandMiddleEnd
								{
									OFFSET 19.0120 -0.3129 -0.0340
									CHANNELS 3 Zrotation Xrotation Yrotation
									End Site
									{
										OFFSET 0.0 1.0 0.0
									}
								}
							}
						}
					}
				}
				JOINT RightShoulder
				{
					OFFSET -1.3801 23.1803 5.2142
					CHANNELS 3 Zrotation Xrotation Yrotation
					JOINT RightArm
					{
						OFFSET -15.0372 0.0000 -5.5456
						CHANNELS 3 Zrotation Xrotation Yrotation
						JOINT RightForeArm
						{
							OFFSET -28.7366 0.0000 -0.0026
							CHANNELS 3 Zrotation Xrotation Yrotation
							JOINT RightHand
							{
								OFFSET -27.1336 -0.0000 0.0026
								CHANNELS 3 Zrotation Xrotation Yrotation
								JOINT RightHandThumbEnd
								{
									OFFSET -12.2642 -3.2115 4.8040
									CHANNELS 3 Zrotation Xrotation Yrotation
									End Site
									{
										OFFSET 0.0 1.0 0.0
									}
								}
								JOINT RightHandMiddleEnd
								{
									OFFSET -19.0006 -0.3066 -0.0316
									CHANNELS 3 Zrotation Xrotation Yrotation
									End Site
									{
										OFFSET 0.0 1.0 0.0
									}
								}
							}
						}
					}
				}
			}
		}
	}
	JOINT LeftLeg
	{
		OFFSET 10.0432 -8.4345 2.5957
		CHANNELS 3 Zrotation Xrotation Yrotation
		JOINT LeftShin
		{
			OFFSET -0.0000 -43.2218 -0.8029
			CHANNELS 3 Zrotation Xrotation Yrotation
			JOINT LeftFoot
			{
				OFFSET 0.0000 -42.1551 -3.4815
				CHANNELS 3 Zrotation Xrotation Yrotation
				JOINT LeftToeBase
				{
					OFFSET 0.0000 -5.0595 13.2315
					CHANNELS 3 Zrotation Xrotation Yrotation
					End Site
					{
						OFFSET 0.0 1.0 0.0
					}
				}
			}
		}
	}
	JOINT RightLeg
	{
		OFFSET -10.0473 -8.2953 2.6203
		CHANNELS 3 Zrotation Xrotation Yrotation
		JOINT RightShin
		{
			OFFSET 0.0000 -43.3622 -0.8056
			CHANNELS 3 Zrotation Xrotation Yrotation
			JOINT RightFoot
			{
				OFFSET 0.0000 -42.1174 -3.4784
				CHANNELS 3 Zrotation Xrotation Yrotation
				JOINT RightToeBase
				{
					OFFSET -0.0000 -5.0796 13.2842
					CHANNELS 3 Zrotation Xrotation Yrotation
					End Site
					{
						OFFSET 0.0 1.0 0.0
					}
				}
			}
		}
	}
}
MOTION
Frames: 14
Frame Time: 0.033333
-2.7451 93.1934 265.3140 -0.4795 -8.8282 0.3797 2.3986 7.9328 0.9187 0.3725 -2.2687 3.2818 2.6520 19.9875 5.0718 12.4751 42.0577 -3.8828 -3.2521 -4.0364 -12.3414 -4.0655 -1.6722 -15.2545 0.1459 -0.0752 -0.1152 0.8943 -10.3305 -3.9636 -0.5977 -10.4344 3.6578 -2.9270 21.3164 11.5572 -59.1241 13.5724 -18.1417 1.5288 0.4969 -107.6192 4.5582 51.6830 41.0245 -15.7806 10.4919 14.6717 -60.4135 1.3800 1.5549 -17.2823 19.6594 21.0727 37.4944 -12.5030 -1.2292 -1.2223 2.4369 82.7572 -16.8035 28.4543 -29.5291 15.3619 7.1613 -15.9875 50.9765 -3.3573 -5.4585 5.3597 -21.7447 -5.5919 -0.2698 43.9467 -0.4709 -7.4233 -13.2751 -4.1922 1.6155 0.3144 -1.8541 -18.5272 -2.8115 -8.3863 1.1097 54.8746 2.4065 17.8914 -5.1851 2.3824 -1.6363 -12.4424 1.3531
-2.5048 93.4175 268.1107 -1.4382 -9.8948 2.3292 2.3521 7.5005 0.7461 0.3656 -2.4182 3.0904 2.6510 19.3346 4.7954 13.6457 42.6023 -4.5008 -3.2825 -4.1064 -12.5262 -4.5739 -1.0253 -15.3672 0.2209 -0.0808 -0.1633 0.9828 -10.3803 -4.0387 -0.5330 -10.4951 3.6121 -2.8107 21.2590 11.2552 -58.4650 13.5386 -17.4506 1.2629 0.2312 -107.2026 3.7541 51.1634 40.8744 -15.6701 10.5961 14.6848 -60.3900 1.4787 1.5056 -16.9349 19.6940 20.7982 37.6340 -10.3793 0.0723 -1.7029 2.4148 83.5669 -14.6502 28.9775 -29.4993 15.4683 7.1934 -15.9844 51.1291 -3.3472 -5.5409 5.6717 -18.9465 -6.1215 -0.2274 44.3770 -0.4393 -6.4344 -15.6444 -5.1912 1.6265 0.1290 -1.8585 -18.6877 -3.2995 -10.3172 1.2964 59.2028 2.6160 15.1482 -1.0377 2.0386 -1.5865 -10.0671 1.2041
-2.4799 93.6747 270.6918 -2.3221 -10.4065 4.7690 2.1297 7.0643 0.6138 0.3175 -2.6182 2.8231 2.4871 18.7404 4.3983 14.6880 42.7035 -4.9540 -3.3311 -4.1813 -12.4757 -4.7236 -0.5238 -15.3660 0.2730 -0.0787 -0.1986 1.0567 -10.4013 -4.0965 -0.5031 -10.5291 3.5839 -2.2902 20.9020 10.5918 -57.8231 13.3104 -17.2427 0.9758 0.0102 -107.3639 2.9619 49.5492 39.8811 -15.5912 10.7261 14.8251 -60.4443 1.4730 1.4301 -15.7360 19.5645 20.0654 38.5968 -8.5979 -0.7696 -1.9032 2.1052 84.9480 -13.4193 28.9982 -29.4147 15.6735 7.1846 -15.8704 51.3028 -3.3385 -5.4956 6.0860 -16.7735 -7.2748 -0.2032 44.4242 -0.4176 -5.5687 -17.3502 -6.0536 1.6302 -0.0800 -1.8577 -18.4271 -4.4352 -12.2126 1.3539 63.1464 2.5633 11.7534 1.0319 -0.1905 -1.5484 -6.7281 1.0946
-2.6417 93.9493 273.0776 -3.0051 -10.4146 7.2819 1.7756 6.6749 0.4770 0.2546 -2.8132 2.6120 2.1826 18.2532 4.0154 15.4208 42.2367 -5.0700 -3.4218 -4.2311 -12.3150 -4.4665 -0.1067 -15.1728 0.2833 -0.0843 -0.2110 1.0771 -10.4174 -4.1283 -0.5046 -10.5490 3.5907 -1.8086 20.3531 9.8409 -57.1961 12.7502 -17.2917 0.7446 -0.0638 -107.9045 2.5997 47.7636 38.7191 -15.5288 10.8414 15.0514 -60.4535 1.4343 1.3825 -14.1535 19.4034 19.0085 40.1719 -7.0178 -3.1610 -1.7393 1.8083 86.3672 -12.4715 28.3255 -29.0431 15.8988 7.1638 -15.8213 51.4114 -3.3691 -5.4134 6.4472 -15.0688 -8.7637 -0.1662 44.0104 -0.3860 -4.8708 -18.5412 -6.6163 1.6264 -0.1913 -1.8419 -17.8543 -6.2210 -13.6835 1.3214 65.9235 2.3628 8.9811 1.1619 -2.8994 -1.5463 -4.7029 1.0548
-3.0114 94.2687 275.2199 -3.5129 -9.9913 9.6827 1.3822 6.3859 0.3868 0.1683 -2.9608 2.4525 1.7892 17.9239 3.6409 15.7289 41.3147 -4.8174 -3.4846 -4.2477 -11.9970 -3.8721 0.1512 -14.7322 0.2732 -0.0985 -0.2176 1.0751 -10.4350 -4.1536 -0.5254 -10.5675 3.6105 -1.5519 19.7644 9.1765 -56.5878 11.7620 -17.3604 0.5505 -0.1245 -108.7182 2.8058 46.2122 37.5482 -15.5433 10.8848 15.3216 -60.4327 1.3672 1.3756 -12.4019 19.3288 17.7562 42.0716 -5.3889 -6.4099 -1.5218 1.5966 87.5682 -11.3041 26.9874 -28.5705 16.1341 7.1495 -15.9032 51.4903 -3.3939 -5.3417 6.8046 -13.8085 -10.4473 -0.1200 43.2299 -0.3403 -4.3746 -19.3173 -6.8672 1.6204 -0.2155 -1.8131 -16.9608 -8.6704 -14.6510 1.2876 67.2809 2.1861 7.4112 0.1255 -4.9128 -1.5461 -3.8326 1.0397
-3.5759 94.6167 277.1842 -3.8553 -9.1339 11.9480 0.9777 6.2241 0.3200 0.0862 -3.0323 2.3429 1.2963 17.7026 3.2409 15.5754 39.9353 -4.1814 -3.4267 -4.2287 -11.4436 -2.8649 0.2143 -14.0336 0.2385 -0.1063 -0.2070 1.0370 -10.4714 -4.1600 -0.5601 -10.5978 3.6546 -1.5446 19.1129 8.6134 -56.0638 10.4725 -17.3272 0.2677 -0.1192 -109.6856 3.3259 44.8071 35.9508 -15.6317 10.8521 15.5893 -60.2977 1.3025 1.4159 -10.5013 19.2791 16.4633 44.1128 -3.6187 -10.1214 -1.2108 1.4274 88.4371 -9.5566 25.4094 -28.5184 16.3499 7.1664 -16.1247 51.4787 -3.4664 -5.3312 7.2623 -13.0250 -12.1793 -0.0789 42.1431 -0.3158 -4.1045 -19.6854 -7.0493 1.6133 -0.1628 -1.7931 -15.7731 -11.8283 -15.3035 1.2090 66.9745 1.9739 6.8422 -1.4004 -6.1193 -1.5301 -3.4214 1.0219
-4.3188 95.0003 279.1179 -4.0252 -7.9198 14.0058 0.6128 6.2002 0.2910 0.0148 -3.0118 2.2778 0.7255 17.5994 2.8179 14.9060 38.2594 -3.3611 -3.2124 -4.1606 -10.6050 -1.4851 0.0269 -13.1341 0.1847 -0.1078 -0.1687 0.9673 -10.5337 -4.1291 -0.6022 -10.6453 3.7243 -1.7569 18.3699 8.1467 -55.6753 9.0381 -17.1059 -0.1559 -0.0573 -110.7599 3.9606 43.5697 33.9311 -15.7005 10.7754 15.8462 -60.0350 1.2451 1.4861 -8.4677 19.2686 15.2640 46.0016 -1.8696 -13.7828 -0.7346 1.1816 88.8325 -6.8525 23.8883 -28.9549 16.4250 7.2172 -16.4124 51.2892 -3.5634 -5.3653 7.8467 -12.6293 -13.8345 -0.0562 40.8019 -0.3169 -4.1608 -19.7024 -7.2575 1.6113 -0.0519 -1.7909 -14.4255 -15.4290 -15.6747 1.0896 64.5960 1.7535 7.5366 -2.7069 -6.0383 -1.4973 -3.2482 0.9974
-5.1764 95.3986 280.7662 -4.0085 -6.4844 15.8553 0.2711 6.2678 0.2513 -0.0469 -2.8834 2.2520 0.1606 17.5866 2.4097 13.9661 36.5200 -2.5226 -2.9150 -4.0682 -9.6705 0.0256 -0.4306 -12.2404 0.1293 -0.1061 -0.1169 0.8884 -10.5920 -4.0672 -0.6369 -10.6764 3.7880 -2.0461 17.5750 7.7570 -55.4584 7.6719 -16.6986 -0.6623 -0.0079 -111.9592 4.7635 42.7254 32.0231 -15.7442 10.7301 16.0356 -59.8764 1.2374 1.5655 -6.4887 19.1689 14.1648 47.5658 -0.2452 -16.8205 -0.1530 1.0849 88.6074 -2.5272 22.9144 -29.6613 16.3022 7.2324 -16.6314 50.9201 -3.6931 -5.4031 8.5064 -12.4398 -15.2922 -0.0580 39.1486 -0.3524 -4.4947 -19.4330 -7.5536 1.6126 0.0882 -1.8140 -13.1881 -18.9462 -15.8187 0.9654 59.9655 1.5957 9.1900 -3.2996 -5.2226 -1.4731 -3.1016 1.0013
-6.0679 95.8034 282.3048 -3.7667 -4.8807 17.5263 -0.0736 6.3933 0.2661 -0.0899 -2.7050 2.1805 -0.3431 17.6468 2.0560 12.9346 34.8053 -1.7700 -2.5924 -3.9865 -8.7799 1.4817 -1.1376 -11.5279 0.0852 -0.0988 -0.0688 0.8238 -10.6290 -4.0060 -0.6624 -10.6859 3.8408 -2.3177 16.7323 7.4266 -55.3419 6.4866 -16.0478 -1.1584 0.0292 -113.3560 5.7555 42.2751 30.7318 -15.7465 10.7278 16.1802 -59.8508 1.2715 1.6474 -4.6515 18.9986 13.2041 48.7286 1.0575 -19.0590 0.2806 1.2421 87.9090 3.3753 23.1653 -30.3149 16.0152 7.2049 -16.6516 50.4198 -3.7438 -5.3979 9.1674 -12.4370 -16.5285 -0.0840 37.2078 -0.4208 -5.0443 -18.9501 -7.9789 1.6144 0.2394 -1.8608 -12.2952 -21.9430 -15.6037 0.8615 53.1049 1.4845 10.9253 -2.7759 -4.6778 -1.4685 -2.9774 1.0436
-7.0033 96.1896 283.7776 -3.2688 -3.1527 19.1695 -0.4376 6.5896 0.2484 -0.1109 -2.5116 2.1190 -0.7603 17.7265 1.7826 11.9120 33.0266 -1.1858 -2.2914 -3.9183 -8.1011 2.8365 -2.0794 -10.9849 0.0464 -0.0886 -0.0306 0.7700 -10.6371 -3.9497 -0.6874 -10.6677 3.8761 -2.4960 15.8692 7.0302 -55.2961 5.4826 -15.2730 -1.4287 0.0965 -114.8323 6.9316 42.1382 30.0844 -15.7620 10.7250 16.2920 -59.9092 1.3118 1.8136 -3.1939 18.7301 12.3783 49.7558 2.0659 -20.4362 0.4868 1.5900 86.9099 8.7047 24.1261 -30.4135 15.6195 7.1409 -16.5144 49.8176 -3.7065 -5.3249 9.7784 -12.6182 -17.5865 -0.1039 35.0326 -0.4943 -5.7500 -18.2804 -8.6590 1.6193 0.3743 -1.9084 -12.0617 -24.0229 -14.8072 0.7887 43.9897 1.3729 12.1611 -0.4893 -4.5629 -1.4799 -2.8320 1.1340
-8.0878 96.5729 285.2626 -2.5336 -1.3658 20.9949 -0.7941 6.8044 0.2345 -0.1070 -2.3365 2.0857 -1.0612 17.8250 1.5684 11.1049 31.1918 -0.8036 -2.1347 -3.8785 -7.6887 4.0246 -3.0923 -10.7869 0.0013 -0.0796 0.0077 0.7226 -10.6558 -3.9026 -0.7316 -10.6714 3.9238 -2.5568 15.1061 6.5304 -55.1599 4.5980 -14.5776 -1.4121 0.0878 -116.2736 8.2183 42.2840 30.1145 -15.7543 10.6858 16.3384 -59.9063 1.3568 2.0169 -2.2192 18.3406 11.7291 50.7426 2.7082 -21.3709 0.5747 1.8564 85.8281 11.6908 24.5532 -30.0967 15.3388 7.0961 -16.4064 49.3543 -3.6284 -5.2535 10.3410 -12.9271 -18.5704 -0.1338 32.6706 -0.5832 -6.5026 -17.4000 -9.6300 1.6317 0.3815 -1.9473 -12.6906 -24.9915 -13.1539 0.7205 33.4719 1.2323 12.9658 3.5793 -4.4829 -1.4979 -2.5302 1.2551
-9.3069 96.9222 286.8238 -1.6083 0.4390 23.1642 -1.0714 6.9500 0.2230 -0.1046 -2.1563 2.1136 -1.2169 17.9071 1.3604 10.6485 29.2496 -0.5887 -2.2077 -3.8732 -7.5828 5.0725 -4.1509 -11.1017 -0.0440 -0.0683 0.0495 0.6787 -10.6567 -3.8548 -0.7798 -10.6671 3.9776 -2.5383 14.4572 6.0441 -54.8238 3.7319 -14.0350 -1.2887 0.1636 -117.4650 9.1034 42.3967 30.1964 -15.7489 10.6525 16.3853 -59.8959 1.4041 2.1944 -1.6647 17.9648 11.3007 51.5937 2.7853 -22.2246 0.5818 1.9080 84.6075 12.6821 23.9780 -29.7007 15.3155 7.0496 -16.2913 49.1400 -3.6302 -5.1505 10.9581 -13.2152 -19.4931 -0.1708 29.9813 -0.7034 -7.3486 -16.2579 -10.8536 1.6533 0.2011 -1.9677 -14.1030 -24.9697 -10.7140 0.5755 23.6238 1.0479 13.8756 8.5091 -4.3307 -1.5143 -2.0406 1.3495
-10.7245 97.2132 288.4933 -0.5250 2.1003 25.6846 -1.2120 7.0531 0.2533 -0.1224 -1.9812 2.1102 -1.2552 17.9272 1.2520 10.5201 27.3026 -0.4805 -2.3899 -3.8920 -7.8873 5.9936 -5.2617 -11.8406 -0.0808 -0.0563 0.0857 0.6402 -10.6463 -3.8075 -0.8138 -10.6528 4.0152 -2.4341 13.9167 5.6924 -54.1813 2.8677 -13.5355 -1.2740 0.2719 -118.3054 9.3556 42.3198 29.9164 -15.8188 10.6218 16.3667 -60.0114 1.4680 2.2857 -1.4259 17.7197 11.1274 52.1845 2.3475 -23.0739 0.5084 1.7217 83.2024 12.6769 22.9705 -29.3890 15.4111 7.0307 -16.1767 49.1266 -3.6743 -5.0893 11.5690 -13.2919 -20.4078 -0.2051 26.9631 -0.8103 -8.2812 -15.0179 -12.1874 1.6714 -0.1613 -1.9533 -15.8415 -24.4267 -8.2049 0.3597 17.1299 0.9236 15.2397 12.5730 -4.5567 -1.5324 -1.5010 1.3661
-12.2210 97.3765 290.3334 0.7857 3.4309 28.3816 -1.2424 7.1998 0.3317 -0.1497 -1.8288 2.1192 -1.2248 17.8820 1.1703 10.6472 25.4056 -0.3658 -2.6861 -3.9302 -8.5060 6.7168 -6.3701 -13.0235 -0.0928 -0.0483 0.1070 0.6350 -10.6500 -3.7794 -0.8333 -10.6583 4.0347 -2.4242 13.6918 5.7036 -53.0474 1.9118 -13.0404 -1.3117 0.5170 -118.9283 8.4292 41.4234 28.6533 -15.8125 10.5891 16.3473 -60.2493 1.5273 2.2875 -1.4556 17.5630 11.2200 52.3172 1.7320 -23.7862 0.2553 1.5281 81.8735 12.3273 21.9865 -29.3015 15.5452 6.9192 -16.0298 49.0806 -3.8294 -5.0930 11.9745 -12.9590 -21.2253 -0.2377 23.5802 -0.9265 -9.4452 -13.8111 -13.3140 1.6764 -0.5678 -1.9088 -17.3384 -23.9718 -6.4839 0.1798 15.9380 0.8220 16.3173 12.6034 -6.5563 -1.5593 -1.0443 1.3589
